<?xml version="1.0" encoding="UTF-8" standalone="no"?>
<svg
   height="48"
   width="48"
   version="1.1"
   id="svg15487"
   sodipodi:docname="bank.svg"
   xml:space="preserve"
   inkscape:version="1.2.2 (732a01da63, 2022-12-09)"
   xmlns:inkscape="http://www.inkscape.org/namespaces/inkscape"
   xmlns:sodipodi="http://sodipodi.sourceforge.net/DTD/sodipodi-0.dtd"
   xmlns="http://www.w3.org/2000/svg"
   xmlns:svg="http://www.w3.org/2000/svg"><defs
     id="defs15491" /><sodipodi:namedview
     id="namedview15489"
     pagecolor="#ffffff"
     bordercolor="#000000"
     borderopacity="0.25"
     inkscape:showpageshadow="2"
     inkscape:pageopacity="0.0"
     inkscape:pagecheckerboard="0"
     inkscape:deskcolor="#d1d1d1"
     showgrid="false"
     inkscape:zoom="12.645833"
     inkscape:cx="14.985173"
     inkscape:cy="24.079077"
     inkscape:window-width="1440"
     inkscape:window-height="788"
     inkscape:window-x="-6"
     inkscape:window-y="-6"
     inkscape:window-maximized="1"
     inkscape:current-layer="layer6" /><g
     inkscape:groupmode="layer"
     id="layer6"
     inkscape:label="Layer 2"
     sodipodi:insensitive="true"
     style="display:inline"><path
       d="m 12.1,37.775 q -0.65,0 -1.075,-0.425 Q 10.6,36.925 10.6,36.275 v -14 q 0,-0.6 0.45,-1.025 0.45,-0.425 1.05,-0.425 0.65,0 1.075,0.425 0.425,0.425 0.425,1.075 v 14 q 0,0.6 -0.45,1.025 -0.45,0.425 -1.05,0.425 z m 12.1,0 q -0.65,0 -1.075,-0.425 Q 22.7,36.925 22.7,36.275 v -14 q 0,-0.6 0.45,-1.025 0.45,-0.425 1.05,-0.425 0.65,0 1.075,0.425 0.425,0.425 0.425,1.075 v 14 q 0,0.6 -0.45,1.025 -0.45,0.425 -1.05,0.425 z m -18.75,6 q -0.6,0 -1.025,-0.45 Q 4,42.875 4,42.275 4,41.625 4.425,41.2 4.85,40.775 5.5,40.775 h 37.05 q 0.6,0 1.025,0.45 0.425,0.45 0.425,1.05 0,0.65 -0.425,1.075 -0.425,0.425 -1.075,0.425 z m 30.45,-6 q -0.65,0 -1.075,-0.425 Q 34.4,36.925 34.4,36.275 v -14 q 0,-0.6 0.45,-1.025 0.45,-0.425 1.05,-0.425 0.65,0 1.075,0.425 0.425,0.425 0.425,1.075 v 14 q 0,0.6 -0.45,1.025 -0.45,0.425 -1.05,0.425 z m -10.4,-33.15 17.4,9.9 q 0.5,0.25 0.8,0.725 0.3,0.475 0.3,1.025 0,0.7 -0.55,1.125 -0.55,0.425 -1.25,0.425 H 5.8 Q 5.1,17.825 4.55,17.4 4,16.975 4,16.275 q 0,-0.55 0.325,-1 0.325,-0.45 0.825,-0.75 l 17.35,-9.9 q 0.7,-0.4 1.5,-0.4 0.8,0 1.5,0.4 z m -14.8,10.2 h 26.6 z m 0,0 H 37.3 L 24,7.225 Z"
       id="path15485"
       style="fill:#eaa159;fill-opacity:1" /></g><g
     inkscape:groupmode="layer"
     id="layer8"
     inkscape:label="Layer 4"><path
       d="m 24.006565,13.729069 q -0.08066,0 -0.133433,-0.05904 -0.05279,-0.05904 -0.05279,-0.1493 v -0.375 q -0.297912,-0.05559 -0.508932,-0.236108 -0.211025,-0.180557 -0.328943,-0.458332 -0.03104,-0.07636 0,-0.159723 0.03104,-0.08333 0.105512,-0.11805 0.06826,-0.03475 0.13965,0 0.07135,0.03472 0.108613,0.111112 0.111712,0.236111 0.29171,0.354169 0.17999,0.11805 0.415837,0.11805 0.297914,0 0.490316,-0.166668 0.192402,-0.166666 0.192402,-0.458333 0,-0.305554 -0.170679,-0.472222 -0.170703,-0.166675 -0.6424,-0.340286 -0.446851,-0.159714 -0.667186,-0.423603 -0.220327,-0.263889 -0.220327,-0.659719 0,-0.3819453 0.220327,-0.6388896 0.22033,-0.2569437 0.574095,-0.2916654 V 8.9374105 q 0,-0.090279 0.05279,-0.149305 0.05271,-0.059029 0.133434,-0.059029 0.08069,0 0.133432,0.059029 0.05275,0.059021 0.05275,0.149305 v 0.3680548 q 0.223439,0.034724 0.400324,0.1527784 0.176885,0.1180562 0.29481,0.3055556 0.04345,0.069439 0.01864,0.149305 -0.0248,0.079861 -0.09931,0.1145837 -0.06826,0.03472 -0.14275,0.0069 -0.07449,-0.02777 -0.124112,-0.1041649 -0.08689,-0.125 -0.214125,-0.1840287 -0.127234,-0.059021 -0.30722,-0.059021 -0.285504,0 -0.453074,0.1458334 -0.167575,0.145835 -0.167575,0.3958332 0,0.263886 0.186194,0.427078 0.186191,0.163193 0.688925,0.336804 0.422045,0.145833 0.623755,0.420137 0.201708,0.274304 0.201708,0.690973 0,0.437499 -0.229638,0.70486 -0.22964,0.267362 -0.676515,0.34375 v 0.368055 q 0,0.09026 -0.05271,0.1493 -0.05279,0.05904 -0.13345,0.05904 z"
       id="path17099"
       style="fill:#07305d;fill-opacity:1;stroke:none;stroke-width:0.99999;stroke-opacity:1" /></g></svg>
