<?xml version="1.0" encoding="UTF-8" standalone="no"?>
<svg
   height="48"
   width="48"
   version="1.1"
   id="svg11209"
   xmlns="http://www.w3.org/2000/svg"
   xmlns:svg="http://www.w3.org/2000/svg">
  <defs
     id="defs11213">
    <linearGradient
       id="linearGradient11726">
      <stop
         style="stop-color:#000000;stop-opacity:1;"
         offset="0"
         id="stop11724" />
    </linearGradient>
  </defs>
  <g
     id="layer3">
    <path
       d="m 14.670161,22.654839 q 0.9,-1.8 1.925,-3.55 1.025,-1.75 2.175,-3.35 l -3.95,-0.8 -5.4499996,5.45 z m 25.75,-15.6000004 q -5.1,0.25 -9.2,2.175 -4.1,1.9250004 -8,5.8250004 -1.55,1.55 -3.2,4.05 -1.65,2.5 -2.95,5.35 l 6.65,6.65 q 2.85,-1.3 5.35,-2.95 2.5,-1.65 4.05,-3.2 3.9,-3.9 5.825,-7.975 1.925,-4.075 2.175,-9.1750004 0,-0.15 -0.05,-0.3 -0.05,-0.15 -0.15,-0.25 -0.1,-0.1 -0.225,-0.15 -0.125,-0.05 -0.275,-0.05 z m -11.85,12.6000004 q -1,-1 -1,-2.475 0,-1.475 1,-2.475 1,-1 2.475,-1 1.475,0 2.475,1 1,1 1,2.475 0,1.475 -1,2.475 -1,1 -2.475,1 -1.475,0 -2.475,-1 z m -3.05,13.9 2.25,5.25 5.45,-5.45 -0.75,-3.95 q -1.6,1.15 -3.375,2.2 -1.775,1.05 -3.575,1.95 z m 18.65,-27.9500004 q 0.15,6.2500004 -2.025,11.5250004 -2.175,5.275 -6.875,9.975 -0.05,0.05 -0.1,0.075 -0.05,0.025 -0.1,0.075 l 1.1,5.5 q 0.15,0.75 -0.05,1.45 -0.2,0.7 -0.75,1.25 l -7.05,7.05 q -0.55,0.55 -1.325,0.4 -0.775,-0.15 -1.075,-0.9 l -3.4,-7.85 -8.45,-8.5 -7.8999996,-3.35 q -0.75,-0.3 -0.875,-1.1 -0.125,-0.8 0.425,-1.35 l 6.9999996,-7 q 0.55,-0.55 1.25,-0.775 0.7,-0.225 1.45,-0.075 l 5.5,1.1 q 0.05,-0.05 0.1,-0.075 0.05,-0.025 0.1,-0.075 4.7,-4.7000004 9.95,-6.8750004 5.25,-2.175 11.5,-2.025 0.3,0 0.575,0.125 0.275,0.125 0.525,0.375 0.25,0.25 0.375,0.5 0.125,0.25 0.125,0.55 z M 7.5201614,31.704839 q 1.75,-1.75 4.2749996,-1.775 2.525,-0.025 4.275,1.725 1.75,1.75 1.725,4.275 -0.025,2.525 -1.775,4.275 -1.3,1.3 -4.025,2.15 -2.7249996,0.85 -8.1749996,1.6 0.75,-5.45 1.575,-8.2 0.825,-2.75 2.125,-4.05 z m 2.1,2.15 q -0.7,0.75 -1.25,2.35 -0.55,1.6 -0.95,4.1 2.5,-0.4 4.0999996,-0.95 1.6,-0.55 2.35,-1.25 0.95,-0.85 0.975,-2.125 0.025,-1.275 -0.875,-2.225 -0.95,-0.9 -2.225,-0.875 -1.275,0.025 -2.1249996,0.975 z"
       id="path11207-9"
       style="display:inline;fill:#07305d;fill-opacity:1" />
  </g>
  <g
     id="layer4">
    <path
       d="m 14.670161,22.654839 c 0.6,-1.2 1.241667,-2.383333 1.925,-3.55 0.683333,-1.166667 1.408333,-2.283333 2.175,-3.35 l -3.95,-0.8 -5.4499997,5.45 z m 25.75,-15.6000003 c -3.4,0.1666667 -6.466667,0.8916667 -9.2,2.175 -2.733333,1.2833333 -5.4,3.2250003 -8,5.8250003 -1.033333,1.033333 -2.1,2.383333 -3.2,4.05 -1.1,1.666667 -2.083333,3.45 -2.95,5.35 l 6.65,6.65 c 1.9,-0.866667 3.683333,-1.85 5.35,-2.95 1.666667,-1.1 3.016667,-2.166667 4.05,-3.2 2.6,-2.6 4.541667,-5.258333 5.825,-7.975 1.283333,-2.716667 2.008333,-5.775 2.175,-9.1750003 0,-0.1 -0.01667,-0.2 -0.05,-0.3 -0.03333,-0.1 -0.08333,-0.1833333 -0.15,-0.25 -0.06667,-0.066667 -0.141667,-0.1166667 -0.225,-0.15 -0.08333,-0.033333 -0.175,-0.05 -0.275,-0.05 z m -14.9,26.5000003 2.25,5.25 5.45,-5.45 -0.75,-3.95 c -1.066667,0.766667 -2.191667,1.5 -3.375,2.2 -1.183333,0.7 -2.375,1.35 -3.575,1.95 z m 18.65,-27.9500003 c 0.1,4.1666669 -0.575,8.0083333 -2.025,11.5250003 -1.45,3.516667 -3.741667,6.841667 -6.875,9.975 -0.03333,0.03333 -0.06667,0.05833 -0.1,0.075 -0.03333,0.01667 -0.06667,0.04167 -0.1,0.075 l 1.1,5.5 c 0.1,0.5 0.08333,0.983333 -0.05,1.45 -0.133333,0.466667 -0.383333,0.883333 -0.75,1.25 l -7.05,7.05 c -0.366667,0.366667 -0.808333,0.5 -1.325,0.4 -0.516667,-0.1 -0.875,-0.4 -1.075,-0.9 l -3.4,-7.85 -8.45,-8.5 -7.8999997,-3.35 c -0.5,-0.2 -0.7916667,-0.566667 -0.875,-1.1 -0.083333,-0.533333 0.058333,-0.983333 0.425,-1.35 l 6.9999997,-7 c 0.366667,-0.366667 0.783333,-0.625 1.25,-0.775 0.466667,-0.15 0.95,-0.175 1.45,-0.075 l 5.5,1.1 c 0.03333,-0.03333 0.06667,-0.05833 0.1,-0.075 0.03333,-0.01667 0.06667,-0.04167 0.1,-0.075 3.133333,-3.1333335 6.45,-5.4250003 9.95,-6.8750003 3.5,-1.45 7.333333,-2.125 11.5,-2.025 0.2,0 0.391667,0.041667 0.575,0.125 0.183333,0.083333 0.358333,0.2083333 0.525,0.375 0.166667,0.1666667 0.291667,0.3333333 0.375,0.5 0.08333,0.1666667 0.125,0.35 0.125,0.55 z"
       id="path11207"
       style="display:inline;fill:#eaa159;fill-opacity:1;stroke:none;stroke-opacity:1" />
  </g>
</svg>
