<?xml version="1.0" encoding="UTF-8" standalone="no"?>
<svg
   version="1.1"
   width="4432"
   height="804"
   viewBox="0 0 4432.0002 803.99994"
   id="svg19"
   xmlns="http://www.w3.org/2000/svg"
   xmlns:svg="http://www.w3.org/2000/svg">
  <defs
     id="defs23">
    <defs
       id="SvgjsDefs2749" />
  </defs>
  <rect
     fill="#07305d"
     width="4432"
     height="804"
     id="rect2"
     x="0"
     y="0"
     style="stroke-width:1" />
  <g
     id="SvgjsG2750"
     featureKey="1p4tPl-0"
     transform="matrix(8.1765005,0,0,8.1765005,175.68851,-6.8322616)"
     fill="#eaa159"
     style="stroke-width:1.42916">
    <g
       id="g11"
       style="stroke-width:1.42916">
      <path
         d="M 50,58.449 29.27,51.678 v 14.335 c 5.538,4.844 12.78,7.786 20.714,7.788 0.006,0 0.011,0.002 0.016,0.002 0.006,0 0.011,-0.002 0.017,-0.002 7.935,-0.002 15.175,-2.944 20.714,-7.788 V 51.679 Z"
         id="path5"
         style="stroke-width:1.42916" />
      <path
         d="m 49.202,38.524 c 0.144,-0.441 0.618,-0.682 1.06,-0.538 l 24.959,8.151 c 0.264,0.087 0.455,0.293 0.535,0.539 L 99.92,38.785 50,22.483 0.081,38.785 50,55.087 73.605,47.379 49.739,39.585 c -0.44,-0.145 -0.682,-0.62 -0.537,-1.061 z"
         id="path7"
         style="stroke-width:1.42916" />
      <path
         d="m 77.361,56.435 c 0,-0.965 -0.547,-1.794 -1.344,-2.218 L 75.8,46.936 75.798,46.909 c -0.002,-0.08 -0.02,-0.158 -0.043,-0.233 l -2.15,0.703 0.496,0.162 -0.195,6.557 c -0.93,0.372 -1.586,1.276 -1.586,2.338 0,1.007 0.594,1.869 1.447,2.273 l -0.51,17.057 c 0,0.031 0,0.068 0,0.102 0.029,0.939 0.812,1.678 1.754,1.65 0.938,-0.029 1.678,-0.812 1.648,-1.752 L 76.147,58.582 c 0.726,-0.444 1.214,-1.236 1.214,-2.147 z"
         id="path9"
         style="stroke-width:1.42916" />
    </g>
  </g>
  <g
     id="SvgjsG2751"
     featureKey="dYASrj-0"
     transform="matrix(24.509804,0,0,24.509804,1139.6235,84.779137)"
     fill="#ffffff"
     style="stroke-width:0.972355">
    <path
       d="m 8.6,6.3026113 c 0,-0.32 0.18,-0.5 0.5,-0.5 h 2.2 c 0.32,0 0.5,0.18 0.5,0.5 V 19.302611 c 0,0.32 -0.18,0.5 -0.5,0.5 H 9.8 c -0.26,0 -0.48,-0.1 -0.62,-0.32 l -4.78,-7.48 v 7.3 c 0,0.32 -0.18,0.5 -0.5,0.5 H 1.7 c -0.32,0 -0.5,-0.18 -0.5,-0.5 V 6.3026113 c 0,-0.32 0.18,-0.5 0.5,-0.5 h 1.5 c 0.26,0 0.48,0.1 0.62,0.32 L 8.6,13.602611 Z M 25.52,19.182611 c 0.26,0.32 0.1202,0.62018 -0.2998,0.62018 h -2.56 c -0.26,0 -0.46,-0.08 -0.62,-0.3 l -3.407,-4.3 h -1.233 v 4.1 c 0,0.32 -0.18,0.5 -0.5,0.5 h -2.2 c -0.32,0 -0.5,-0.18 -0.5,-0.5 V 6.3027913 c 0,-0.32 0.18,-0.5 0.5,-0.5 h 2.7 2.2 c 2.66,0 4.8,2.14 4.8,4.7999997 0,1.6788 -0.9968,3.2086 -2.4754,4.0108 z M 17.4002,8.8026113 v 3.5999997 h 2.2 c 0.88,0 1.6,-0.78 1.6,-1.8 0,-1.0199997 -0.72,-1.7999997 -1.6,-1.7999997 z m 9.7998,-0.2 c -0.32,0 -0.5,-0.18 -0.5,-0.5 v -1.8 c 0,-0.32 0.18,-0.5 0.5,-0.5 h 2 c 0.32,0 0.5,0.18 0.5,0.5 v 1.8 c 0,0.32 -0.18,0.5 -0.5,0.5 z m 0,11.1999997 c -0.32,0 -0.5,-0.18 -0.5,-0.5 v -9 c 0,-0.3199997 0.18,-0.4999997 0.5,-0.4999997 h 2 c 0.32,0 0.5,0.18 0.5,0.4999997 v 9 c 0,0.32 -0.18,0.5 -0.5,0.5 z m 14,-3.8 c 0.34,0 0.54,0.22 0.42,0.56 -0.62,2.08 -2.58,3.52 -4.92,3.52 -3.04,0 -5.3,-2.3 -5.3,-5.28 0,-2.98 2.26,-5.2799997 5.3,-5.2799997 2.34,0 4.3,1.4399997 4.92,3.5199997 0.12,0.34 -0.08,0.56 -0.42,0.56 H 39 c -0.26,0 -0.44,-0.12 -0.6,-0.34 -0.36,-0.5 -0.98,-0.78 -1.7,-0.78 -1.3,0 -2.3,0.94 -2.3,2.32 0,1.38 1,2.32 2.3,2.32 0.72,0 1.34,-0.28 1.7,-0.76 0.16,-0.24 0.32,-0.36 0.6,-0.36 z m 7.56,-6.4799997 c 1.86,0 3.2,1.4399997 3.2,3.9399997 v 5.84 c 0,0.32 -0.18,0.5 -0.5,0.5 h -2 c -0.32,0 -0.5,-0.18 -0.5,-0.5 v -5.58 c 0,-1 -0.58,-1.44 -1.34,-1.44 -0.9,0 -1.46,0.5 -1.46,1.68 v 5.34 c 0,0.32 -0.18,0.5 -0.5,0.5 h -2 c -0.32,0 -0.5,-0.18 -0.5,-0.5 V 6.3026113 c 0,-0.32 0.18,-0.5 0.5,-0.5 h 2 c 0.32,0 0.5,0.18 0.5,0.5 v 4.4133997 c 0.47,-0.695 1.3214,-1.1933997 2.6,-1.1933997 z m 18.04,-0.64 h -4.6 v 2.8999997 h 4.5 c 0.32,0 0.5,0.18 0.5,0.5 v 2.08 c 0,0.32 -0.18,0.5 -0.5,0.5 h -4.5 v 4.44 c 0,0.32 -0.18,0.5 -0.5,0.5 h -2.2 c -0.32,0 -0.5,-0.18 -0.5,-0.5 V 6.3026113 c 0,-0.32 0.18,-0.5 0.5,-0.5 h 2.7 4.6 c 0.32,0 0.5,0.18 0.5,0.5 v 2.08 c 0,0.32 -0.18,0.5 -0.5,0.5 z m 2.7,-0.28 c -0.32,0 -0.5,-0.18 -0.5,-0.5 v -1.8 c 0,-0.32 0.18,-0.5 0.5,-0.5 h 2 c 0.32,0 0.5,0.18 0.5,0.5 v 1.8 c 0,0.32 -0.18,0.5 -0.5,0.5 z m 0,11.1999997 c -0.32,0 -0.5,-0.18 -0.5,-0.5 v -9 c 0,-0.3199997 0.18,-0.4999997 0.5,-0.4999997 h 2 c 0.32,0 0.5,0.18 0.5,0.4999997 v 9 c 0,0.32 -0.18,0.5 -0.5,0.5 z M 79.8,9.5226113 c 1.86,0 3.2,1.4399997 3.2,3.9399997 v 5.84 c 0,0.32 -0.18,0.5 -0.5,0.5 h -2 c -0.32,0 -0.5,-0.18 -0.5,-0.5 v -5.58 c 0,-1 -0.58,-1.44 -1.34,-1.44 -0.9,0 -1.46,0.5 -1.46,1.68 v 5.34 c 0,0.32 -0.18,0.5 -0.5,0.5 h -2 c -0.32,0 -0.5,-0.18 -0.5,-0.5 v -9 c 0,-0.3199997 0.18,-0.4999997 0.5,-0.4999997 h 2 c 0.32,0 0.5,0.18 0.5,0.4999997 v 0.4134 c 0.47,-0.695 1.3214,-1.1933997 2.6,-1.1933997 z m 9.28,0 c 2.2,0 4.16,1.2799997 4.16,3.9799997 v 5.8 c 0,0.32 -0.18,0.5 -0.5,0.5 h -1.92 c -0.32,0 -0.5,-0.18 -0.5,-0.5 v -0.28561 c -0.5362,0.6276 -1.3234,1.0656 -2.58,1.0656 -1.76,0 -3.3,-1.04 -3.3,-3.12 0,-2.08 1.54,-3.12 3.3,-3.12 1.2566,0 2.0438,0.3546 2.58,0.76262 v -0.9026 c 0,-0.98 -0.4,-1.42 -1.24,-1.42 -0.62,0 -1,0.24 -1.16,0.58 -0.12,0.28 -0.22,0.44 -0.52,0.44 h -1.96 c -0.32,0 -0.52,-0.18 -0.5,-0.52 0.26,-2.16 2.1,-3.2599997 4.14,-3.2599997 z M 88.8,17.962611 c 0.98,0 1.52,-0.42 1.52,-1 0,-0.62 -0.54,-1 -1.52,-1 -0.92,0 -1.36,0.42 -1.36,1 0,0.58 0.44,1 1.36,1 z m 11.98,-8.4399997 c 1.86,0 3.2,1.4399997 3.2,3.9399997 v 5.84 c 0,0.32 -0.18,0.5 -0.5,0.5 h -2 c -0.32,0 -0.5,-0.18 -0.5,-0.5 v -5.58 c 0,-1 -0.58,-1.44 -1.34,-1.44 -0.9,0 -1.46,0.5 -1.46,1.68 v 5.34 c 0,0.32 -0.18,0.5 -0.5,0.5 h -2 c -0.32,0 -0.5,-0.18 -0.5,-0.5 v -9 c 0,-0.3199997 0.18,-0.4999997 0.5,-0.4999997 h 2 c 0.32,0 0.5,0.18 0.5,0.4999997 v 0.4134 c 0.47,-0.695 1.3214,-1.1933997 2.6,-1.1933997 z m 14.44,6.4799997 c 0.34,0 0.54,0.22 0.42,0.56 -0.62,2.08 -2.58,3.52 -4.92,3.52 -3.04,0 -5.3,-2.3 -5.3,-5.28 0,-2.98 2.26,-5.2799997 5.3,-5.2799997 2.34,0 4.3,1.4399997 4.92,3.5199997 0.12,0.34 -0.08,0.56 -0.42,0.56 h -2.2 c -0.26,0 -0.44,-0.12 -0.6,-0.34 -0.36,-0.5 -0.98,-0.78 -1.7,-0.78 -1.3,0 -2.3,0.94 -2.3,2.32 0,1.38 1,2.32 2.3,2.32 0.72,0 1.34,-0.28 1.7,-0.76 0.16,-0.24 0.32,-0.36 0.6,-0.36 z m 6.82,-6.4799997 c 2.92,0 5.04,2.2599997 5.04,5.2799997 0,0.26 -0.02,0.5 -0.04,0.74 -0.04,0.32 -0.24,0.46 -0.54,0.46 h -2.44 -4.2388 c 0.3634,1.1882 1.2966,1.66 2.3388,1.66 0.56,0 1.12,-0.2 1.48,-0.5 0.2,-0.16 0.36,-0.26 0.62,-0.26 l 1.92,-0.02 c 0.36,0 0.56,0.24 0.4,0.56 -0.78,1.74 -2.42,2.64 -4.46,2.64 -3.32,0 -5.44,-2.3 -5.44,-5.28 0,-2.98 2.2,-5.2799997 5.36,-5.2799997 z m -2.2314,4.1999997 h 4.285 c -0.3092,-1.138 -1.1914,-1.54 -2.0736,-1.54 -1.1244,0 -1.9024,0.5426 -2.2114,1.54 z"
       id="path14"
       style="stroke-width:0.972355" />
  </g>
</svg>
