
        <svg xmlns="http://www.w3.org/2000/svg" xmlns:xlink="http://www.w3.org/1999/xlink" version="1.1" width="3171.4285714285716" 
        height="1326.0384070854138" viewBox="0 0 3171.4285714285716 1326.0384070854138">
			<rect fill="#07305d" width="3171.4285714285716" height="1326.0384070854138"/>
			<g transform="scale(8.57142857142857) translate(10, 10)">
				<defs id="SvgjsDefs2749"></defs><g id="SvgjsG2750" featureKey="1p4tPl-0" transform="matrix(1.3633059721511758,0,0,1.3633059721511758,106.88957220577329,-30.65120790144371)" fill="#eaa159"><g xmlns="http://www.w3.org/2000/svg"><path d="M50,58.449l-20.73-6.771v14.335c5.538,4.844,12.78,7.786,20.714,7.788c0.006,0,0.011,0.002,0.016,0.002   c0.006,0,0.011-0.002,0.017-0.002c7.935-0.002,15.175-2.944,20.714-7.788V51.679L50,58.449z"></path><path d="M49.202,38.524c0.144-0.441,0.618-0.682,1.06-0.538l24.959,8.151c0.264,0.087,0.455,0.293,0.535,0.539l24.164-7.891   L50,22.483L0.081,38.785L50,55.087l23.605-7.708l-23.866-7.794C49.299,39.44,49.057,38.965,49.202,38.524z"></path><path d="M77.361,56.435c0-0.965-0.547-1.794-1.344-2.218l-0.217-7.281l-0.002-0.027c-0.002-0.08-0.02-0.158-0.043-0.233   l-2.15,0.703l0.496,0.162l-0.195,6.557c-0.93,0.372-1.586,1.276-1.586,2.338c0,1.007,0.594,1.869,1.447,2.273l-0.51,17.057   c0,0.031,0,0.068,0,0.102c0.029,0.939,0.812,1.678,1.754,1.65c0.938-0.029,1.678-0.812,1.648-1.752l-0.512-17.184   C76.873,58.138,77.361,57.346,77.361,56.435z"></path></g></g><g id="SvgjsG2751" featureKey="dYASrj-0" transform="matrix(2.780425694500339,0,0,2.780425694500339,-3.3365122917917223,78.31744583299796)" fill="#ffffff"><path d="M8.6 6.5 c0 -0.32 0.18 -0.5 0.5 -0.5 l2.2 0 c0.32 0 0.5 0.18 0.5 0.5 l0 13 c0 0.32 -0.18 0.5 -0.5 0.5 l-1.5 0 c-0.26 0 -0.48 -0.1 -0.62 -0.32 l-4.78 -7.48 l0 7.3 c0 0.32 -0.18 0.5 -0.5 0.5 l-2.2 0 c-0.32 0 -0.5 -0.18 -0.5 -0.5 l0 -13 c0 -0.32 0.18 -0.5 0.5 -0.5 l1.5 0 c0.26 0 0.48 0.1 0.62 0.32 l4.78 7.48 l0 -7.3 z M25.52 19.38 c0.26 0.32 0.1202 0.62018 -0.2998 0.62018 l-2.56 0 c-0.26 0 -0.46 -0.08 -0.62 -0.3 l-3.407 -4.3 l-1.233 0 l0 4.1 c0 0.32 -0.18 0.5 -0.5 0.5 l-2.2 0 c-0.32 0 -0.5 -0.18 -0.5 -0.5 l0 -13 c0 -0.32 0.18 -0.5 0.5 -0.5 l2.7 0 l2.2 0 c2.66 0 4.8 2.14 4.8 4.8 c0 1.6788 -0.9968 3.2086 -2.4754 4.0108 z M17.400199999999998 9 l0 3.6 l2.2 0 c0.88 0 1.6 -0.78 1.6 -1.8 s-0.72 -1.8 -1.6 -1.8 l-2.2 0 z M27.200000000000003 8.8 c-0.32 0 -0.5 -0.18 -0.5 -0.5 l0 -1.8 c0 -0.32 0.18 -0.5 0.5 -0.5 l2 0 c0.32 0 0.5 0.18 0.5 0.5 l0 1.8 c0 0.32 -0.18 0.5 -0.5 0.5 l-2 0 z M27.200000000000003 20 c-0.32 0 -0.5 -0.18 -0.5 -0.5 l0 -9 c0 -0.32 0.18 -0.5 0.5 -0.5 l2 0 c0.32 0 0.5 0.18 0.5 0.5 l0 9 c0 0.32 -0.18 0.5 -0.5 0.5 l-2 0 z M41.2 16.2 c0.34 0 0.54 0.22 0.42 0.56 c-0.62 2.08 -2.58 3.52 -4.92 3.52 c-3.04 0 -5.3 -2.3 -5.3 -5.28 s2.26 -5.28 5.3 -5.28 c2.34 0 4.3 1.44 4.92 3.52 c0.12 0.34 -0.08 0.56 -0.42 0.56 l-2.2 0 c-0.26 0 -0.44 -0.12 -0.6 -0.34 c-0.36 -0.5 -0.98 -0.78 -1.7 -0.78 c-1.3 0 -2.3 0.94 -2.3 2.32 s1 2.32 2.3 2.32 c0.72 0 1.34 -0.28 1.7 -0.76 c0.16 -0.24 0.32 -0.36 0.6 -0.36 l2.2 0 z M48.760000000000005 9.72 c1.86 0 3.2 1.44 3.2 3.94 l0 5.84 c0 0.32 -0.18 0.5 -0.5 0.5 l-2 0 c-0.32 0 -0.5 -0.18 -0.5 -0.5 l0 -5.58 c0 -1 -0.58 -1.44 -1.34 -1.44 c-0.9 0 -1.46 0.5 -1.46 1.68 l0 5.34 c0 0.32 -0.18 0.5 -0.5 0.5 l-2 0 c-0.32 0 -0.5 -0.18 -0.5 -0.5 l0 -13 c0 -0.32 0.18 -0.5 0.5 -0.5 l2 0 c0.32 0 0.5 0.18 0.5 0.5 l0 4.4134 c0.47 -0.695 1.3214 -1.1934 2.6 -1.1934 z M66.80000000000001 9.08 l-4.6 0 l0 2.9 l4.5 0 c0.32 0 0.5 0.18 0.5 0.5 l0 2.08 c0 0.32 -0.18 0.5 -0.5 0.5 l-4.5 0 l0 4.44 c0 0.32 -0.18 0.5 -0.5 0.5 l-2.2 0 c-0.32 0 -0.5 -0.18 -0.5 -0.5 l0 -13 c0 -0.32 0.18 -0.5 0.5 -0.5 l2.7 0 l4.6 0 c0.32 0 0.5 0.18 0.5 0.5 l0 2.08 c0 0.32 -0.18 0.5 -0.5 0.5 z M69.5 8.8 c-0.32 0 -0.5 -0.18 -0.5 -0.5 l0 -1.8 c0 -0.32 0.18 -0.5 0.5 -0.5 l2 0 c0.32 0 0.5 0.18 0.5 0.5 l0 1.8 c0 0.32 -0.18 0.5 -0.5 0.5 l-2 0 z M69.5 20 c-0.32 0 -0.5 -0.18 -0.5 -0.5 l0 -9 c0 -0.32 0.18 -0.5 0.5 -0.5 l2 0 c0.32 0 0.5 0.18 0.5 0.5 l0 9 c0 0.32 -0.18 0.5 -0.5 0.5 l-2 0 z M79.80000000000001 9.72 c1.86 0 3.2 1.44 3.2 3.94 l0 5.84 c0 0.32 -0.18 0.5 -0.5 0.5 l-2 0 c-0.32 0 -0.5 -0.18 -0.5 -0.5 l0 -5.58 c0 -1 -0.58 -1.44 -1.34 -1.44 c-0.9 0 -1.46 0.5 -1.46 1.68 l0 5.34 c0 0.32 -0.18 0.5 -0.5 0.5 l-2 0 c-0.32 0 -0.5 -0.18 -0.5 -0.5 l0 -9 c0 -0.32 0.18 -0.5 0.5 -0.5 l2 0 c0.32 0 0.5 0.18 0.5 0.5 l0 0.4134 c0.47 -0.695 1.3214 -1.1934 2.6 -1.1934 z M89.08 9.72 c2.2 0 4.16 1.28 4.16 3.98 l0 5.8 c0 0.32 -0.18 0.5 -0.5 0.5 l-1.92 0 c-0.32 0 -0.5 -0.18 -0.5 -0.5 l0 -0.28561 c-0.5362 0.6276 -1.3234 1.0656 -2.58 1.0656 c-1.76 0 -3.3 -1.04 -3.3 -3.12 s1.54 -3.12 3.3 -3.12 c1.2566 0 2.0438 0.3546 2.58 0.76262 l0 -0.9026 c0 -0.98 -0.4 -1.42 -1.24 -1.42 c-0.62 0 -1 0.24 -1.16 0.58 c-0.12 0.28 -0.22 0.44 -0.52 0.44 l-1.96 0 c-0.32 0 -0.52 -0.18 -0.5 -0.52 c0.26 -2.16 2.1 -3.26 4.14 -3.26 z M88.8 18.16 c0.98 0 1.52 -0.42 1.52 -1 c0 -0.62 -0.54 -1 -1.52 -1 c-0.92 0 -1.36 0.42 -1.36 1 s0.44 1 1.36 1 z M100.78 9.72 c1.86 0 3.2 1.44 3.2 3.94 l0 5.84 c0 0.32 -0.18 0.5 -0.5 0.5 l-2 0 c-0.32 0 -0.5 -0.18 -0.5 -0.5 l0 -5.58 c0 -1 -0.58 -1.44 -1.34 -1.44 c-0.9 0 -1.46 0.5 -1.46 1.68 l0 5.34 c0 0.32 -0.18 0.5 -0.5 0.5 l-2 0 c-0.32 0 -0.5 -0.18 -0.5 -0.5 l0 -9 c0 -0.32 0.18 -0.5 0.5 -0.5 l2 0 c0.32 0 0.5 0.18 0.5 0.5 l0 0.4134 c0.47 -0.695 1.3214 -1.1934 2.6 -1.1934 z M115.22 16.2 c0.34 0 0.54 0.22 0.42 0.56 c-0.62 2.08 -2.58 3.52 -4.92 3.52 c-3.04 0 -5.3 -2.3 -5.3 -5.28 s2.26 -5.28 5.3 -5.28 c2.34 0 4.3 1.44 4.92 3.52 c0.12 0.34 -0.08 0.56 -0.42 0.56 l-2.2 0 c-0.26 0 -0.44 -0.12 -0.6 -0.34 c-0.36 -0.5 -0.98 -0.78 -1.7 -0.78 c-1.3 0 -2.3 0.94 -2.3 2.32 s1 2.32 2.3 2.32 c0.72 0 1.34 -0.28 1.7 -0.76 c0.16 -0.24 0.32 -0.36 0.6 -0.36 l2.2 0 z M122.03999999999999 9.72 c2.92 0 5.04 2.26 5.04 5.28 c0 0.26 -0.02 0.5 -0.04 0.74 c-0.04 0.32 -0.24 0.46 -0.54 0.46 l-2.44 0 l-4.2388 0 c0.3634 1.1882 1.2966 1.66 2.3388 1.66 c0.56 0 1.12 -0.2 1.48 -0.5 c0.2 -0.16 0.36 -0.26 0.62 -0.26 l1.92 -0.02 c0.36 0 0.56 0.24 0.4 0.56 c-0.78 1.74 -2.42 2.64 -4.46 2.64 c-3.32 0 -5.44 -2.3 -5.44 -5.28 s2.2 -5.28 5.36 -5.28 z M119.8086 13.92 l4.285 0 c-0.3092 -1.138 -1.1914 -1.54 -2.0736 -1.54 c-1.1244 0 -1.9024 0.5426 -2.2114 1.54 z"></path></g>
			</g>
		</svg>
	