<?xml version="1.0" standalone="no"?>
<!DOCTYPE svg PUBLIC "-//W3C//DTD SVG 20010904//EN"
 "http://www.w3.org/TR/2001/REC-SVG-20010904/DTD/svg10.dtd">
<svg version="1.0" xmlns="http://www.w3.org/2000/svg"
 width="700.000000pt" height="700.000000pt" viewBox="0 0 700.000000 700.000000"
 preserveAspectRatio="xMidYMid meet">
<metadata>
Created by potrace 1.14, written by Peter Selinger 2001-2017
</metadata>
<g transform="translate(0.000000,700.000000) scale(0.100000,-0.100000)"
fill="#000000" stroke="none">
<path d="M0 3500 l0 -3500 3500 0 3500 0 0 3500 0 3500 -3500 0 -3500 0 0
-3500z m4812 1023 c719 -235 1305 -430 1300 -434 -14 -14 -1243 -411 -1255
-405 -7 3 -19 10 -27 16 -11 7 -1240 410 -1325 434 -22 7 -45 -16 -45 -43 0
-24 6 -31 38 -43 20 -8 305 -102 632 -208 327 -107 597 -195 599 -197 2 -2 2
-5 0 -7 -3 -3 -280 -95 -616 -205 l-612 -199 -1303 425 c-717 234 -1306 428
-1310 432 -6 5 2573 856 2606 860 5 1 598 -191 1318 -426z m51 -980 c4 -71 7
-157 7 -193 0 -58 3 -67 30 -95 51 -53 53 -126 4 -184 l-25 -30 13 -448 c8
-248 10 -462 6 -480 -17 -64 -92 -84 -142 -38 -24 23 -26 29 -26 117 0 51 5
262 11 469 l12 377 -33 29 c-28 25 -34 38 -38 86 -4 55 -3 58 36 97 l40 40 7
166 c6 128 5 168 -5 174 -8 5 3 13 31 23 24 8 49 16 55 16 7 1 13 -44 17 -126z
m-1902 -312 c289 -94 532 -171 540 -171 11 0 1015 324 1074 347 13 4 15 -46
15 -375 l0 -380 -62 -50 c-197 -156 -435 -266 -698 -324 -92 -20 -133 -23
-330 -23 -197 0 -238 3 -330 23 -264 58 -523 180 -717 339 l-43 35 0 380 c0
300 3 379 13 375 6 -2 249 -81 538 -176z"/>
</g>
</svg>
